# Blender 3.4.1
# www.blender.org
mtllib test_cube.mtl
o Cube
v -1.000000 -1.000000 1.000000
v -1.000000 1.000000 1.000000
v -1.000000 -1.000000 -1.000000
v -1.000000 1.000000 -1.000000
v 1.000000 -1.000000 1.000000
v 1.000000 1.000000 1.000000
v 1.000000 -1.000000 -1.000000
v 1.000000 1.000000 -1.000000
vn -1.0000 -0.0000 -0.0000
vn -0.0000 -0.0000 -1.0000
vn 1.0000 -0.0000 -0.0000
vn -0.0000 -0.0000 1.0000
vn -0.0000 -1.0000 -0.0000
vn -0.0000 1.0000 -0.0000
vt 0.500000 0.250043
vt 0.500000 0.000087
vt 0.500000 0.999913
vt 0.500000 0.500000
vt 0.749957 0.250043
vt 0.749957 0.000087
vt 0.500000 0.749957
vt 0.250043 0.250043
vt 0.250043 0.000087
vt 0.250043 0.999913
vt 0.000087 0.250043
vt 0.250043 0.500000
vt 0.250043 0.749957
vt 0.000087 0.000087
s 0
usemtl test_cube_material
f 2/2/1 3/5/1 1/1/1
f 4/7/2 7/12/2 3/4/2
f 8/14/3 5/8/3 7/11/3
f 6/9/4 1/1/4 5/8/4
f 7/12/5 1/1/5 3/4/5
f 4/7/6 6/10/6 8/13/6
f 2/2/1 4/6/1 3/5/1
f 4/7/2 8/13/2 7/12/2
f 8/14/3 6/9/3 5/8/3
f 6/9/4 2/2/4 1/1/4
f 7/12/5 5/8/5 1/1/5
f 4/7/6 2/3/6 6/10/6
